<?xml version="1.0" encoding="UTF-8"?>
<svg id="Layer_1" data-name="Layer 1" xmlns="http://www.w3.org/2000/svg" viewBox="0 0 1631.43 2639.51">
  <defs>
    <style>
      .cls-1 {
        fill: none;
        stroke: #ed1c24;
        stroke-dasharray: 0 50;
        stroke-miterlimit: 10;
        stroke-width: 15px;
      }
    </style>
  </defs>
  <path class="cls-1" d="M1505.16,3.77c-66.76,114.88-133.71,277.09-104.44,455.74,32.85,200.48,162.61,273.52,123.43,370.29-62.92,155.39-489.38,193.94-574.42,56.97-31.18-50.23-21.98-132.94,18.99-161.41,54.71-38.01,176.23,13.68,199.38,85.45,29.6,91.76-91.58,247.34-232.62,280.09-185.39,43.05-271.96-157.05-493.71-132.92-185.1,20.14-301.95,178.84-327.56,213.63-158.21,214.88-96.99,461.49-85.45,507.96,56.46,227.43,220.64,351.43,265.85,384.53,272.94,199.83,717.73,78.34,906.73,33.23,85.64-20.44,187.39-51.29,280.09,0,100.56,55.64,160.48,191.34,137.67,289.58-35.23,151.71-239.98,288.42-565.81,232.24"/>
</svg>